# xmcd
#
# Track frame offsets:
#	150
#	14383
#	26630
#
# Disc length: 568 seconds
#
# Revision: 1
# Processed by: cddbd v1.5.1PL0 Copyright (c) Steve Scherf et al.
# Submitted via: EasyCDDAExtractor 8.0.1.1
#
DISCID=1a023603
DTITLE=Kantri-Antero and Rahtarit - rahtari never sleeps
DYEAR=2004
DGENRE=Industrial
TTITLE0=rahtari never sleeps
TTITLE1=saluunan tanssiva narttu
TTITLE2=viimeinen laukka
EXTD=
EXTT0=
EXTT1=
EXTT2=
PLAYORDER=
